<?xml version="1.0" encoding="UTF-8"?>
<!DOCTYPE svg PUBLIC "-//W3C//DTD SVG 1.1//EN" "http://www.w3.org/Graphics/SVG/1.1/DTD/svg11.dtd">
<!-- Creator: CorelDRAW -->
<svg xmlns="http://www.w3.org/2000/svg" xml:space="preserve" width="32px" height="32px" version="1.1" style="shape-rendering:geometricPrecision; text-rendering:geometricPrecision; image-rendering:optimizeQuality; fill-rule:evenodd; clip-rule:evenodd"
viewBox="0 0 8.852 8.852"
 xmlns:xlink="http://www.w3.org/1999/xlink"
 xmlns:xodm="http://www.corel.com/coreldraw/odm/2003">
 <defs>
  <style type="text/css">
   <![CDATA[
    .str1 {stroke:#00E383;stroke-width:0.245;stroke-miterlimit:22.9256}
    .str0 {stroke:#2B2A29;stroke-width:0.01;stroke-miterlimit:22.9256}
    .fil0 {fill:#121414}
    .fil1 {fill:#00E383;fill-rule:nonzero}
   ]]>
  </style>
 </defs>
 <g id="Слой_x0020_1">
  <metadata id="CorelCorpID_0Corel-Layer"/>
  <rect class="fil0 str0" x="0.005" y="0.005" width="8.842" height="8.842" rx="1.616" ry="1.727"/>
  <path class="fil1 str1" d="M4.456 8.207c-0.497,0 -0.924,-0.082 -1.281,-0.247 -0.356,-0.165 -0.631,-0.4 -0.826,-0.706 -0.195,-0.306 -0.293,-0.67 -0.293,-1.094l1.079 0c0,0.336 0.118,0.6 0.353,0.792 0.235,0.191 0.561,0.287 0.978,0.287 0.39,0 0.696,-0.094 0.918,-0.282 0.222,-0.188 0.333,-0.447 0.333,-0.777 0,-0.275 -0.076,-0.514 -0.227,-0.716 -0.152,-0.201 -0.368,-0.339 -0.651,-0.413l-0.927 -0.272c-0.538,-0.155 -0.953,-0.419 -1.246,-0.792 -0.292,-0.373 -0.438,-0.818 -0.438,-1.336 0,-0.403 0.09,-0.756 0.272,-1.059 0.181,-0.302 0.44,-0.537 0.776,-0.705 0.336,-0.169 0.733,-0.253 1.19,-0.253 0.672,0 1.212,0.182 1.619,0.545 0.406,0.363 0.613,0.85 0.62,1.462l-1.089 0c0,-0.323 -0.103,-0.576 -0.308,-0.761 -0.205,-0.185 -0.492,-0.278 -0.862,-0.278 -0.356,0 -0.635,0.086 -0.837,0.258 -0.202,0.171 -0.302,0.411 -0.302,0.721 0,0.275 0.075,0.514 0.226,0.716 0.152,0.201 0.369,0.342 0.651,0.423l0.938 0.282c0.537,0.148 0.951,0.41 1.24,0.787 0.289,0.376 0.434,0.827 0.434,1.351 0,0.41 -0.098,0.771 -0.293,1.084 -0.195,0.313 -0.467,0.555 -0.817,0.726 -0.349,0.171 -0.759,0.257 -1.23,0.257z"/>
 </g>
</svg>
